<svg xmlns="http://www.w3.org/2000/svg" data-name="Layer 1" viewBox="0 0 64 64" id="direction-sign"><path fill="#e3fcfd" d="M32,2h0a4,4,0,0,1,4,4V62a0,0,0,0,1,0,0H28a0,0,0,0,1,0,0V6A4,4,0,0,1,32,2Z"></path><polygon fill="#42eaf5" points="55 28 10 28 10 10 55 10 62 19 55 28"></polygon><polygon fill="#e3fcfd" points="9 54 54 54 54 36 9 36 2 45 9 54"></polygon><circle cx="45" cy="18" r="2" fill="#e3fcfd"></circle><path fill="#007da1" d="M56.57852,8.772A2.00074,2.00074,0,0,0,54.99991,8H38V6A6,6,0,1,0,26,6V8H10.00008a2.0001,2.0001,0,0,0-2,2V28a2.0001,2.0001,0,0,0,2,2H26v4H9.00009a2.00074,2.00074,0,0,0-1.57861.772l-7,9a1.99964,1.99964,0,0,0,0,2.45606l7,9A2.00074,2.00074,0,0,0,9.00009,56H26v4H22a2,2,0,0,0,0,4H42a2,2,0,0,0,0-4H38V56H53.99992a2.0001,2.0001,0,0,0,2-2V36a2.0001,2.0001,0,0,0-2-2H38V30H54.99991a2.00074,2.00074,0,0,0,1.57861-.772l7-9a1.99964,1.99964,0,0,0,0-2.45606ZM30,6a2.00227,2.00227,0,0,1,3.40575-1.42578A2.02357,2.02357,0,0,1,34,6V8H30Zm4,54H30V56h4Zm17.99993-8H9.97811L4.5338,45l5.44431-7H51.99992ZM34,34H30V30h4Zm20.0219-8H12.00008V12H54.02189l5.44431,7Z"></path><path fill="#007da1" d="M37 16H18.00005a2 2 0 0 0 0 4H37a2 2 0 0 0 0-4zM21 46a2.0001 2.0001 0 0 0 2 2H46a2 2 0 0 0 0-4H23A2.0001 2.0001 0 0 0 21 46z"></path></svg>